#!OML:ASF I:\golf\golf\golf 2\Subject 1\2002-09-07\Subject1.ASF
:FULLY-SPECIFIED
:DEGREES
174
root 1.18328 17.9483 -5.6723 12.2589 -4.71947 -5.50378
lowerback -3.22141 1.57861 -3.57773
upperback 1.60802 2.2131 1.94304
thorax 3.25469 1.0028 4.14683
lowerneck -13.2625 2.99756 1.98843
upperneck 42.8671 8.45423 -9.61927
head 19.3671 2.41876 -3.41603
rclavicle -2.24627e-014 -3.97569e-015
rhumerus -25.7397 1.6316 -84.8229
rradius 27.5012
rwrist -8.72774
rhand -20.7209 13.0403
rfingers 7.12502
rthumb 5.64387 -16.8646
lclavicle -2.24627e-014 -3.97569e-015
lhumerus -24.4688 -2.64091 87.5418
lradius 26.2036
lwrist 2.73172
lhand -9.47874 32.4509
lfingers 7.12502
lthumb 16.4856 61.7705
rfemur -23.7322 -0.00187112 18.1603
rtibia 34.8098
rfoot -11.5307 -6.48604
rtoes -12.9561
lfemur -20.8374 4.37479 -16.1183
ltibia 32.2636
lfoot -18.4246 6.18546
ltoes -13.9694
175
root 1.19851 17.9547 -5.67667 12.2825 -4.67136 -5.53283
lowerback -2.98958 1.63284 -3.50831
upperback 1.6636 2.27677 1.89869
thorax 3.1794 1.03746 4.05738
lowerneck -13.1537 2.96593 2.02511
upperneck 42.8296 8.40416 -9.66049
head 19.3103 2.40489 -3.45073
rclavicle -6.85807e-015 -1.70955e-014
rhumerus -25.6222 1.50947 -84.7468
rradius 27.5494
rwrist -8.62171
rhand -20.8209 13.2832
rfingers 7.12502
rthumb 5.54729 -16.6242
lclavicle -6.85807e-015 -1.70955e-014
lhumerus -24.5747 -3.12563 87.5103
lradius 26.4799
lwrist 3.13996
lhand -9.30705 33.0289
lfingers 7.12502
lthumb 16.6509 62.3347
rfemur -24.1348 -0.268804 18.1636
rtibia 35.4462
rfoot -11.23 -6.19485
rtoes -13.7439
lfemur -20.9448 4.50004 -16.1538
ltibia 32.352
lfoot -18.5237 6.01781
ltoes -14.0101
176
root 1.2134 17.9573 -5.68348 12.322 -4.6355 -5.52933
lowerback -2.73352 1.65613 -3.509
upperback 1.7443 2.30073 1.88744
thorax 3.11659 1.04967 4.0395
lowerneck -13.1725 2.91381 1.89345
upperneck 42.7963 8.36884 -9.6759
head 19.2843 2.36749 -3.43803
rclavicle -1.45113e-014 -1.39149e-014
rhumerus -25.4641 1.52089 -84.6367
rradius 27.6546
rwrist -8.58249
rhand -20.8058 13.9355
rfingers 7.12502
rthumb 5.56183 -15.9715
lclavicle -1.45113e-014 -1.39149e-014
lhumerus -24.5655 -3.24048 87.4563
lradius 26.6231
lwrist 3.35792
lhand -9.30627 33.36
lfingers 7.12502
lthumb 16.6516 62.6657
rfemur -24.6184 -0.499498 18.12
rtibia 36.1701
rfoot -10.9544 -5.90216
rtoes -14.3442
lfemur -21.0461 4.45998 -16.2104
ltibia 32.4058
lfoot -18.5776 6.0108
ltoes -14.0277
177
root 1.22819 17.9551 -5.68937 12.3084 -4.68381 -5.4011
lowerback -2.53817 1.67741 -3.72473
upperback 1.89542 2.33233 1.89613
thorax 3.15174 1.05701 4.16805
lowerneck -13.325 2.98675 1.94536
upperneck 42.9051 8.55699 -9.82924
head 19.4448 2.42619 -3.49632
rclavicle -1.02374e-014 7.95139e-015
rhumerus -25.2198 1.43232 -84.3982
rradius 27.7806
rwrist -8.2549
rhand -20.5083 14.2545
rfingers 7.12502
rthumb 5.84908 -15.6448
lclavicle -1.02374e-014 7.95139e-015
lhumerus -24.4304 -2.72832 87.3251
lradius 26.5362
lwrist 2.96524
lhand -9.49451 32.6634
lfingers 7.12502
lthumb 16.4704 61.9843
rfemur -25.1097 -0.638221 17.8944
rtibia 36.9735
rfoot -10.7027 -5.50576
rtoes -13.5694
lfemur -21.0598 4.36536 -16.4134
ltibia 32.4381
lfoot -18.5869 6.14529
ltoes -14.062
178
root 1.24468 17.9536 -5.69335 12.3278 -4.75513 -5.34859
lowerback -2.38952 1.73141 -3.84916
upperback 1.99563 2.40465 1.9076
thorax 3.15946 1.08812 4.25012
lowerneck -13.2423 2.97856 1.85098
upperneck 42.8923 8.54321 -9.76572
head 19.3984 2.41661 -3.44794
rclavicle -3.02153e-014 -9.54166e-015
rhumerus -24.9848 1.07151 -84.1041
rradius 27.7622
rwrist -7.52412
rhand -20.1465 13.6938
rfingers 7.12502
rthumb 6.19839 -16.1955
lclavicle -3.02153e-014 -9.54166e-015
lhumerus -24.1374 -2.49854 87.2631
lradius 25.8578
lwrist 2.77337
lhand -9.93526 31.6548
lfingers 7.12502
lthumb 16.046 61.0104
rfemur -25.6899 -0.742751 17.7325
rtibia 37.8509
rfoot -10.4299 -5.11517
rtoes -13.344
lfemur -21.0915 4.25229 -16.5418
ltibia 32.4419
lfoot -18.525 6.323
ltoes -14.0698
179
root 1.26252 17.9532 -5.69788 12.4147 -4.82054 -5.47321
lowerback -2.22688 1.81077 -3.7141
upperback 2.04599 2.49951 1.9309
thorax 3.11447 1.13854 4.19682
lowerneck -13.1484 2.96521 1.81184
upperneck 42.886 8.5421 -9.78561
head 19.3669 2.41141 -3.45032
rclavicle -1.14301e-014 -1.94809e-014
rhumerus -24.7605 0.834568 -83.9042
rradius 27.6533
rwrist -7.35622
rhand -20.3335 13.6258
rfingers 7.12502
rthumb 6.01782 -16.2687
lclavicle -1.14301e-014 -1.94809e-014
lhumerus -24.1116 -2.32237 87.2068
lradius 25.7122
lwrist 2.5768
lhand -10.2589 31.3476
lfingers 7.12502
lthumb 15.7343 60.7279
rfemur -26.3696 -0.842466 17.7821
rtibia 38.7689
rfoot -10.0373 -4.80213
rtoes -13.9852
lfemur -21.1875 4.17209 -16.4773
ltibia 32.4316
lfoot -18.3998 6.43718
ltoes -13.8825
180
root 1.2773 17.9524 -5.70188 12.45 -4.88989 -5.47763
lowerback -2.02218 1.84317 -3.72501
upperback 2.14193 2.53634 1.95005
thorax 3.09344 1.15524 4.21851
lowerneck -13.1557 2.95086 1.72002
upperneck 42.8946 8.60076 -9.8957
head 19.3898 2.40575 -3.47805
rclavicle -2.32578e-014 2.34566e-014
rhumerus -24.5262 0.987201 -83.8061
rradius 27.7154
rwrist -7.93976
rhand -20.8168 13.9667
rfingers 7.12502
rthumb 5.55125 -15.9405
lclavicle -2.32578e-014 2.34566e-014
lhumerus -24.1393 -2.32288 87.199
lradius 25.8639
lwrist 2.59512
lhand -10.3165 31.4098
lfingers 7.12502
lthumb 15.6788 60.7945
rfemur -27.001 -0.907324 17.6887
rtibia 39.6952
rfoot -9.63135 -4.41428
rtoes -12.5632
lfemur -21.2412 4.26157 -16.5457
ltibia 32.4318
lfoot -18.3767 6.37531
ltoes -13.68
181
root 1.28988 17.9523 -5.70715 12.4421 -4.88302 -5.43442
lowerback -1.78233 1.81923 -3.79042
upperback 2.28053 2.49904 1.95896
thorax 3.10251 1.13217 4.25725
lowerneck -13.1937 2.96888 1.64579
upperneck 42.8682 8.68293 -9.97152
head 19.3985 2.41531 -3.48446
rclavicle 1.46107e-014 -1.35174e-014
rhumerus -24.2559 1.04685 -83.7215
rradius 27.9056
rwrist -8.31601
rhand -20.8453 13.7001
rfingers 7.12502
rthumb 5.5237 -16.208
lclavicle 1.46107e-014 -1.35174e-014
lhumerus -24.1596 -2.26792 87.1101
lradius 26.0359
lwrist 2.61279
lhand -10.3587 31.2943
lfingers 7.12502
lthumb 15.6382 60.6822
rfemur -27.5843 -1.04625 17.5454
rtibia 40.6294
rfoot -9.18667 -3.9524
rtoes -10.9702
lfemur -21.2813 4.36663 -16.6506
ltibia 32.4484
lfoot -18.4035 6.26409
ltoes -13.5999
182
root 1.30185 17.9529 -5.71387 12.4963 -4.80709 -5.5328
lowerback -1.61747 1.79097 -3.72221
upperback 2.429 2.45302 2.00105
thorax 3.16883 1.10582 4.25831
lowerneck -13.2311 3.02562 1.66357
upperneck 42.7885 8.79008 -10.0516
head 19.3798 2.45073 -3.50091
rclavicle -2.8128e-014 2.26615e-014
rhumerus -23.9091 0.771805 -83.5529
rradius 28.0684
rwrist -8.03209
rhand -20.3899 13.1779
rfingers 7.12502
rthumb 5.96339 -16.7182
lclavicle -2.8128e-014 2.26615e-014
lhumerus -24.1113 -1.89874 86.9267
lradius 26.1383
lwrist 2.33108
lhand -10.6099 30.7698
lfingers 7.12502
lthumb 15.3963 60.1765
rfemur -28.2342 -1.15729 17.5665
rtibia 41.5719
rfoot -8.74689 -3.55932
rtoes -9.94979
lfemur -21.3706 4.36857 -16.558
ltibia 32.4516
lfoot -18.3997 5.95823
ltoes -11.8057
